<svg xmlns="http://www.w3.org/2000/svg" width="800" height="800" viewBox="0 0 800 800">
  <rect width="800" height="800" fill="transparent"/>
  <g stroke="rgba(148,163,184,0.18)" stroke-width="1">
    <path d="M0 0H800"/>
    <path d="M0 40H800"/>
    <path d="M0 80H800"/>
    <path d="M0 120H800"/>
    <path d="M0 160H800"/>
    <path d="M0 200H800"/>
    <path d="M0 240H800"/>
    <path d="M0 280H800"/>
    <path d="M0 320H800"/>
    <path d="M0 360H800"/>
    <path d="M0 400H800"/>
    <path d="M0 440H800"/>
    <path d="M0 480H800"/>
    <path d="M0 520H800"/>
    <path d="M0 560H800"/>
    <path d="M0 600H800"/>
    <path d="M0 640H800"/>
    <path d="M0 680H800"/>
    <path d="M0 720H800"/>
    <path d="M0 760H800"/>
    <path d="M0 800H800"/>
    <path d="M0 0V800"/>
    <path d="M40 0V800"/>
    <path d="M80 0V800"/>
    <path d="M120 0V800"/>
    <path d="M160 0V800"/>
    <path d="M200 0V800"/>
    <path d="M240 0V800"/>
    <path d="M280 0V800"/>
    <path d="M320 0V800"/>
    <path d="M360 0V800"/>
    <path d="M400 0V800"/>
    <path d="M440 0V800"/>
    <path d="M480 0V800"/>
    <path d="M520 0V800"/>
    <path d="M560 0V800"/>
    <path d="M600 0V800"/>
    <path d="M640 0V800"/>
    <path d="M680 0V800"/>
    <path d="M720 0V800"/>
    <path d="M760 0V800"/>
    <path d="M800 0V800"/>
  </g>
</svg>
